<svg width="194" height="56" viewBox="0 0 194 56" fill="none" xmlns="http://www.w3.org/2000/svg">
<g clip-path="url(#clip0_10_2646)">
<path d="M48.3971 37.179H41.754H41.7151C43.2946 34.3978 44.1598 31.2689 44.2335 28.072C44.3071 24.8751 43.5869 21.7097 42.1372 18.8589C42.1786 18.8435 42.2226 18.8357 42.2668 18.8359H48.3971C49.7784 18.8359 50.3373 16.9821 49.2037 16.192L26.9094 1.39371C26.322 0.985364 25.6235 0.766479 24.9079 0.766479C24.1924 0.766479 23.4939 0.985364 22.9065 1.39371L0.607858 16.1834C-0.525728 16.9735 0.0317025 18.8272 1.41448 18.8272H7.56494C7.60457 18.8274 7.64393 18.8337 7.68161 18.8459C6.2289 21.6982 5.50691 24.8659 5.58031 28.0654C5.65371 31.2649 6.52021 34.3963 8.1022 37.179H1.41448C0.0331429 37.179 -0.525728 39.0327 0.607858 39.8229L22.9022 54.6068C23.4896 55.0151 24.188 55.234 24.9036 55.234C25.6192 55.234 26.3176 55.0151 26.905 54.6068L49.2095 39.8171C50.3431 39.027 49.7842 37.179 48.3971 37.179ZM30.7379 39.3062C30.7209 39.3483 30.6909 39.3839 30.6523 39.4079C30.6137 39.4319 30.5684 39.443 30.5231 39.4397C30.4777 39.4363 30.4346 39.4186 30.4 39.3892C30.3653 39.3598 30.3409 39.3201 30.3303 39.276C29.7541 36.848 27.994 34.5509 24.9648 34.5509C21.9357 34.5509 20.1755 36.8465 19.5994 39.276C19.5888 39.3201 19.5644 39.3598 19.5297 39.3892C19.4951 39.4186 19.452 39.4363 19.4066 39.4397C19.3613 39.443 19.316 39.4319 19.2774 39.4079C19.2388 39.3839 19.2088 39.3483 19.1918 39.3062C18.8031 38.3593 18.6537 37.3313 18.7567 36.313C18.8598 35.2947 19.2122 34.3174 19.7827 33.4674C20.3533 32.6174 21.1245 31.9209 22.0282 31.4392C22.932 30.9575 23.9405 30.7055 24.9648 30.7055C25.9891 30.7055 26.9977 30.9575 27.9015 31.4392C28.8052 31.9209 29.5764 32.6174 30.147 33.4674C30.7175 34.3174 31.0699 35.2947 31.1729 36.313C31.276 37.3313 31.1266 38.3593 30.7379 39.3062ZM35.6799 36.6551C35.2722 37.6261 34.7099 38.5248 34.0148 39.3163C33.9615 39.3738 33.89 39.4112 33.8124 39.4224C33.7347 39.4336 33.6556 39.4178 33.5881 39.3777C33.5207 39.3377 33.4691 39.2757 33.4419 39.2022C33.4147 39.1286 33.4135 39.048 33.4387 38.9737L33.4516 38.9421C34.1681 36.8506 34.0571 34.5646 33.1412 32.5523C32.2253 30.5401 30.5739 28.9539 28.5255 28.119C24.2317 26.3444 19.3243 28.1996 17.2904 32.2683L17.2789 32.2942C17.2456 32.3672 17.1877 32.4262 17.1153 32.4609C17.0429 32.4957 16.9607 32.5039 16.8828 32.4842C16.805 32.4645 16.7365 32.4181 16.6894 32.3531C16.6423 32.2882 16.6195 32.2087 16.625 32.1287C16.705 31.0813 16.9545 30.0537 17.3639 29.0861C19.4726 24.0805 25.286 21.7187 30.3433 23.8085C35.4005 25.8982 37.7901 31.6509 35.6799 36.6551ZM39.5358 30.0173C39.5182 30.1361 39.4589 30.2447 39.3685 30.3237C39.278 30.4028 39.1624 30.447 39.0422 30.4486C38.9221 30.4501 38.8053 30.4089 38.7129 30.3322C38.6204 30.2556 38.5583 30.1486 38.5376 30.0303C38.396 29.1958 38.1667 28.3786 37.8534 27.5922C35.3832 21.3574 27.9263 18.0371 21.6678 20.4694C15.4093 22.9017 12.7187 30.1454 15.186 36.3802C15.4979 37.1681 15.8908 37.9215 16.3585 38.6283C16.4238 38.729 16.4509 38.8497 16.4349 38.9686C16.4189 39.0874 16.3608 39.1967 16.2712 39.2765C16.1815 39.3563 16.0663 39.4014 15.9462 39.4037C15.8262 39.406 15.7093 39.3653 15.6167 39.2889C13.8839 37.863 12.5014 36.0591 11.5755 34.0157C10.6497 31.9724 10.2051 29.7441 10.2761 27.5022C10.347 25.2603 10.9315 23.0645 11.9847 21.0837C13.0379 19.1029 14.5316 17.3897 16.3511 16.0761C18.1706 14.7624 20.2674 13.8831 22.4802 13.5059C24.693 13.1286 26.963 13.2635 29.1155 13.9001C31.268 14.5366 33.2457 15.6579 34.8966 17.1778C36.5475 18.6977 37.8276 20.5756 38.6385 22.6671C39.5682 24.9986 39.8774 27.531 39.5358 30.0173Z" fill="white"/>
<path d="M76.6892 8.6167H73.7955V18.9159C73.7955 20.0903 73.4791 20.9975 72.8463 21.6375C72.2135 22.2775 71.3094 22.5975 70.134 22.5975C68.9731 22.5975 68.0767 22.2813 67.4448 21.649C66.813 21.0167 66.4961 20.1052 66.4942 18.9145V8.6167H63.6019V19.0973C63.6019 20.3763 63.8693 21.4902 64.4042 22.4392C64.9279 23.3777 65.7184 24.14 66.6757 24.6297C67.6551 25.1421 68.8074 25.3983 70.1326 25.3983C71.477 25.3983 72.6374 25.1382 73.614 24.6182C74.5676 24.1234 75.3568 23.3624 75.8855 22.4277C76.4194 21.4874 76.6868 20.3772 76.6878 19.0973L76.6892 8.6167Z" fill="white"/>
<path d="M85.7291 13.6313C85.0049 13.6246 84.2891 13.7873 83.6391 14.1063C83.0309 14.3932 82.5172 14.8476 82.1584 15.416L81.9322 13.9767H79.3784V25.1337H82.1353V19.1191C82.1353 18.2172 82.3754 17.4947 82.8555 16.9516C83.3356 16.4086 84.0078 16.1375 84.872 16.1385C85.5951 16.1385 86.1679 16.3683 86.5904 16.8279C87.0129 17.2875 87.2237 17.9836 87.2228 18.9162V25.128H89.9811V18.2613C89.9811 16.8307 89.6229 15.7014 88.9066 14.8734C88.1902 14.0453 87.1311 13.6313 85.7291 13.6313Z" fill="white"/>
<path d="M93.595 8.41368C93.3754 8.40911 93.1571 8.44882 92.9532 8.53042C92.7493 8.61202 92.5639 8.73385 92.4082 8.88863C92.25 9.03995 92.1252 9.22254 92.0416 9.42475C91.958 9.62695 91.9176 9.84434 91.9227 10.0631C91.9162 10.2867 91.9546 10.5094 92.0357 10.718C92.1168 10.9265 92.239 11.1167 92.395 11.2772C92.551 11.4377 92.7377 11.5653 92.9439 11.6525C93.1502 11.7396 93.3718 11.7845 93.5958 11.7845C93.8197 11.7845 94.0413 11.7396 94.2476 11.6525C94.4538 11.5653 94.6405 11.4377 94.7965 11.2772C94.9525 11.1167 95.0747 10.9265 95.1558 10.718C95.2369 10.5094 95.2753 10.2867 95.2688 10.0631C95.2727 9.84399 95.2311 9.6265 95.1465 9.42435C95.062 9.22219 94.9363 9.03978 94.7776 8.88863C94.6224 8.73438 94.4377 8.61286 94.2345 8.53127C94.0314 8.44968 93.8139 8.4097 93.595 8.41368Z" fill="white"/>
<path d="M94.9965 13.9709H92.2396V25.1279H94.9965V13.9709Z" fill="white"/>
<path d="M103.276 25.1279L107.933 13.9709H105.078L103.043 19.0975C102.803 19.7154 102.588 20.2988 102.399 20.8476C102.242 21.2875 102.11 21.7358 102.004 22.1905C101.928 21.8901 101.804 21.4651 101.631 20.9153C101.458 20.3655 101.251 19.7596 101.009 19.0975L99.0657 13.9709H96.1273L100.556 25.1279H103.276Z" fill="white"/>
<path d="M108.605 22.5861C109.069 23.4488 109.761 24.1677 110.606 24.6644C111.494 25.1785 112.506 25.4403 113.533 25.4214C114.993 25.4214 116.202 25.075 117.16 24.3823C118.112 23.6981 118.757 22.6682 118.957 21.5139H116.402C116.331 21.7704 116.209 22.0103 116.044 22.2195C115.879 22.4287 115.674 22.6032 115.441 22.7329C114.952 23.0208 114.328 23.1647 113.569 23.1647C112.545 23.1647 111.773 22.8562 111.253 22.2392C110.838 21.7485 110.592 21.0677 110.508 20.2042L118.904 20.184V19.3478C118.904 18.1734 118.682 17.1659 118.237 16.3254C117.809 15.4999 117.154 14.8138 116.349 14.3479C115.536 13.8749 114.564 13.6379 113.434 13.6369C112.418 13.6184 111.416 13.8804 110.54 14.3939C109.701 14.8919 109.02 15.6156 108.574 16.4823C108.097 17.4327 107.861 18.4852 107.885 19.5479C107.863 20.6053 108.111 21.651 108.605 22.5861ZM111.826 16.2966C112.324 16.0116 112.892 15.8706 113.465 15.8893C114.294 15.8893 114.953 16.1229 115.443 16.5902C115.933 17.0575 116.177 17.6749 116.177 18.4425H110.56C110.609 18.1246 110.696 17.8135 110.818 17.5157C111.013 17.0113 111.366 16.5836 111.825 16.2966H111.826Z" fill="white"/>
<path d="M127.68 16.4766V13.9248C127.474 13.8679 127.262 13.8303 127.048 13.8126C126.852 13.7967 126.656 13.7896 126.46 13.7896C125.57 13.7896 124.847 14.0227 124.29 14.489C123.917 14.7998 123.624 15.1944 123.434 15.6404L123.273 13.9925H120.673V25.1279H123.431V19.7063C123.431 18.622 123.719 17.8127 124.295 17.2783C124.872 16.7438 125.663 16.4766 126.669 16.4766H127.68Z" fill="white"/>
<path d="M136.88 23.7158C137.279 23.1434 137.485 22.4587 137.468 21.7613C137.468 20.9036 137.228 20.241 136.748 19.7738C136.268 19.3065 135.566 18.9673 134.642 18.7562L132.625 18.2827C131.665 18.0572 131.185 17.6355 131.185 17.0176C131.179 16.8315 131.216 16.6466 131.295 16.4778C131.373 16.309 131.491 16.1611 131.637 16.0461C131.939 15.8062 132.361 15.6858 132.903 15.6849C133.446 15.6849 133.867 15.8288 134.169 16.1023C134.322 16.2491 134.441 16.427 134.52 16.6239C134.598 16.8208 134.632 17.0321 134.622 17.2436H137.243C137.249 16.5751 137.06 15.9195 136.698 15.357C136.337 14.7946 135.819 14.3498 135.208 14.0772C134.52 13.7643 133.771 13.6099 133.016 13.6253C132.234 13.6111 131.458 13.753 130.733 14.0427C130.108 14.2931 129.564 14.7115 129.163 15.2517C128.773 15.7966 128.571 16.4531 128.587 17.1227C128.587 18.0121 128.831 18.7087 129.321 19.2125C129.811 19.7162 130.56 20.0813 131.57 20.3077L133.586 20.7827C134.084 20.8882 134.422 21.046 134.603 21.2562C134.778 21.4549 134.875 21.7109 134.874 21.9758C134.878 22.1675 134.834 22.3572 134.745 22.5271C134.656 22.697 134.525 22.8416 134.365 22.9473C134.027 23.1881 133.526 23.3085 132.862 23.3085C132.244 23.3085 131.764 23.1646 131.421 22.8768C131.251 22.7374 131.114 22.5616 131.02 22.3624C130.926 22.1632 130.878 21.9455 130.88 21.7254H128.245C128.23 22.2344 128.333 22.74 128.547 23.2023C128.761 23.6646 129.079 24.071 129.477 24.3894C130.3 25.0668 131.404 25.406 132.79 25.4069C133.627 25.4237 134.459 25.2735 135.238 24.9651C135.893 24.7124 136.462 24.2792 136.88 23.7158Z" fill="white"/>
<path d="M140.474 11.7345C140.694 11.7362 140.912 11.6942 141.116 11.6108C141.32 11.5275 141.505 11.4044 141.66 11.2489C141.816 11.0934 141.939 10.9085 142.022 10.705C142.106 10.5015 142.148 10.2835 142.146 10.0635C142.151 9.8449 142.11 9.62767 142.027 9.42554C141.943 9.22341 141.818 9.04076 141.661 8.88912C141.341 8.58434 140.916 8.41431 140.474 8.41431C140.032 8.41431 139.607 8.58434 139.287 8.88912C139.129 9.04064 139.004 9.22322 138.92 9.42536C138.837 9.6275 138.796 9.84479 138.8 10.0635C138.799 10.2835 138.841 10.5015 138.925 10.7049C139.008 10.9083 139.132 11.0931 139.287 11.2486C139.443 11.404 139.628 11.527 139.832 11.6104C140.036 11.6939 140.254 11.736 140.474 11.7345Z" fill="white"/>
<path d="M141.874 13.9709H139.117V25.1279H141.874V13.9709Z" fill="white"/>
<path d="M155.391 8.32312H152.654V15.3927C152.293 14.825 151.775 14.3748 151.162 14.0974C150.49 13.783 149.756 13.6246 149.014 13.6339C147.899 13.6339 146.935 13.8901 146.122 14.4025C145.307 14.911 144.656 15.6443 144.249 16.5138C143.805 17.4798 143.585 18.5337 143.605 19.5967C143.582 20.6488 143.802 21.692 144.249 22.645C144.646 23.4832 145.273 24.1918 146.057 24.6887C146.833 25.1781 147.763 25.4232 148.848 25.4242C149.646 25.435 150.434 25.2486 151.143 24.8816C151.799 24.5561 152.337 24.0337 152.681 23.3877L152.863 25.1277H155.393L155.391 8.32312ZM152.238 21.2763C151.995 21.7722 151.614 22.1879 151.141 22.4737C150.633 22.7626 150.054 22.907 149.469 22.8911C148.89 22.9046 148.318 22.755 147.82 22.4593C147.353 22.1735 146.979 21.7572 146.745 21.2619C146.499 20.7071 146.372 20.107 146.372 19.5003C146.372 18.8935 146.499 18.2934 146.745 17.7386C146.981 17.2419 147.354 16.8229 147.82 16.5311C148.316 16.2291 148.888 16.0762 149.469 16.0907C150.039 16.0694 150.603 16.2123 151.094 16.5025C151.585 16.7927 151.982 17.2178 152.238 17.7271C152.512 18.2772 152.648 18.8858 152.634 19.5003C152.645 20.1153 152.509 20.7242 152.238 21.2763Z" fill="white"/>
<path d="M163.471 24.879C164.157 24.5183 164.62 24.0515 164.861 23.4786L165.066 25.128H167.484V18.3521C167.484 17.3129 167.288 16.4432 166.896 15.7427C166.517 15.0539 165.933 14.5005 165.224 14.1596C164.499 13.8055 163.635 13.6285 162.631 13.6285C161.729 13.6106 160.832 13.7797 159.998 14.125C159.292 14.4131 158.681 14.8945 158.235 15.5139C157.812 16.1361 157.595 16.8748 157.613 17.6267H159.964C159.952 17.3625 160.005 17.0994 160.12 16.8608C160.234 16.6223 160.406 16.4157 160.619 16.2594C161.057 15.9361 161.681 15.7744 162.492 15.7744C162.908 15.7657 163.323 15.8385 163.712 15.9888C164.046 16.121 164.328 16.3591 164.514 16.6667C164.721 17.0427 164.821 17.4684 164.802 17.8973V18.1448L161.457 18.4168C160.131 18.5214 159.111 18.8788 158.395 19.4891C157.68 20.0993 157.322 20.9149 157.321 21.9358C157.321 22.9749 157.663 23.8145 158.349 24.4545C159.035 25.0944 159.965 25.4144 161.141 25.4144C161.95 25.4295 162.75 25.2456 163.471 24.879ZM160.115 21.8293C160.111 21.6165 160.158 21.4058 160.252 21.2151C160.347 21.0244 160.486 20.8594 160.658 20.734C161.019 20.4558 161.629 20.2792 162.489 20.2044L164.816 20.023V20.6102C164.816 21.468 164.564 22.1397 164.059 22.6252C163.554 23.1107 162.872 23.3506 162.013 23.3448C161.411 23.3448 160.944 23.2167 160.612 22.9605C160.281 22.7029 160.115 22.3273 160.115 21.8293Z" fill="white"/>
<path d="M178.13 15.3927C177.769 14.825 177.251 14.3748 176.638 14.0974C175.966 13.783 175.232 13.6246 174.49 13.6339C173.375 13.6339 172.411 13.8901 171.598 14.4025C170.786 14.9121 170.138 15.6452 169.733 16.5138C169.288 17.4798 169.068 18.5337 169.089 19.5967C169.065 20.6488 169.286 21.692 169.733 22.645C170.13 23.4832 170.757 24.1918 171.54 24.6887C172.316 25.1781 173.247 25.4232 174.332 25.4242C175.13 25.435 175.918 25.2486 176.626 24.8816C177.277 24.5546 177.81 24.0336 178.152 23.3905L178.333 25.1306H180.864V8.32312H178.127L178.13 15.3927ZM177.711 21.2763C177.468 21.7722 177.088 22.1879 176.615 22.4737C176.106 22.7626 175.528 22.907 174.942 22.8911C174.363 22.9044 173.791 22.7548 173.292 22.4593C172.825 22.173 172.452 21.7569 172.219 21.2619C171.973 20.7071 171.846 20.107 171.846 19.5003C171.846 18.8935 171.973 18.2934 172.219 17.7386C172.454 17.2424 172.827 16.8236 173.292 16.5311C173.789 16.2296 174.361 16.0768 174.942 16.0907C175.512 16.0694 176.076 16.2123 176.567 16.5025C177.058 16.7927 177.455 17.2178 177.711 17.7271C177.985 18.2772 178.121 18.8858 178.107 19.5003C178.118 20.1153 177.983 20.7242 177.711 21.2763Z" fill="white"/>
<path d="M191.148 21.5139C191.077 21.7707 190.956 22.0107 190.791 22.22C190.626 22.4293 190.421 22.6037 190.188 22.7329C189.698 23.0208 189.077 23.1647 188.324 23.1647C187.298 23.1647 186.526 22.8562 186.006 22.2393C185.593 21.7485 185.346 21.0677 185.261 20.2042L193.658 20.184V19.3478C193.658 18.1734 193.435 17.1659 192.991 16.3254C192.564 15.4997 191.909 14.8135 191.104 14.3479C190.289 13.8749 189.318 13.6379 188.188 13.6369C187.172 13.6182 186.171 13.8802 185.295 14.394C184.456 14.892 183.775 15.6157 183.328 16.4823C182.846 17.4331 182.605 18.4879 182.627 19.5536C182.605 20.6111 182.853 21.6568 183.347 22.5919C183.812 23.454 184.504 24.1727 185.348 24.6701C186.236 25.184 187.248 25.4458 188.275 25.4272C189.736 25.4272 190.946 25.0808 191.903 24.3881C192.855 23.7038 193.5 22.6739 193.699 21.5196L191.148 21.5139ZM186.572 16.2966C187.07 16.0116 187.637 15.8706 188.21 15.8893C189.039 15.8893 189.698 16.123 190.188 16.5902C190.677 17.0575 190.922 17.675 190.922 18.4425H185.305C185.354 18.1248 185.44 17.8138 185.561 17.5157C185.757 17.0108 186.112 16.583 186.572 16.2966Z" fill="white"/>
<path d="M71.694 35.5479C71.3329 34.9806 70.8144 34.5306 70.2017 34.2526C69.5298 33.9389 68.7957 33.7805 68.0541 33.7892C66.9393 33.7892 65.9752 34.0454 65.1618 34.5577C64.3498 35.0677 63.7022 35.8008 63.2965 36.6691C62.8545 37.6342 62.6359 38.6865 62.657 39.7477C62.6334 40.7979 62.8522 41.8395 63.2965 42.7916C63.6936 43.6319 64.3209 44.3425 65.1056 44.8411C65.8815 45.3305 66.812 45.5751 67.8971 45.5751C68.695 45.5859 69.4832 45.3995 70.1917 45.0325C70.8422 44.7057 71.3751 44.1853 71.717 43.5429L71.8985 45.2815H74.4293V28.4784H71.6926L71.694 35.5479ZM71.2748 41.4301C71.0327 41.9266 70.652 42.3424 70.1787 42.6276C69.6701 42.9172 69.0916 43.0615 68.5064 43.045C67.927 43.0584 67.3555 42.9088 66.8572 42.6132C66.3895 42.3276 66.0159 41.9113 65.7826 41.4157C65.5366 40.8612 65.4095 40.2614 65.4095 39.6548C65.4095 39.0483 65.5366 38.4484 65.7826 37.8939C66.0179 37.3966 66.3907 36.9771 66.8572 36.6849C67.3532 36.383 67.9257 36.2301 68.5064 36.2445C69.0766 36.223 69.6408 36.366 70.1318 36.6565C70.6227 36.9469 71.0196 37.3725 71.2748 37.8824C71.5493 38.4324 71.6853 39.0411 71.6709 39.6555C71.6821 40.2701 71.5463 40.8785 71.2748 41.4301Z" fill="white"/>
<path d="M84.2037 42.8879C83.7139 43.1757 83.0926 43.3196 82.3398 43.3196C81.3142 43.3196 80.5417 43.0107 80.0222 42.3928C79.6088 41.902 79.3625 41.2212 79.2775 40.3577L87.6736 40.3375V39.5028C87.6736 38.3284 87.4513 37.3209 87.0067 36.4804C86.5826 35.6534 85.9303 34.9651 85.1269 34.4971C84.3126 34.0173 83.3409 33.7775 82.2116 33.7775C81.1957 33.7595 80.1946 34.0215 79.3179 34.5345C78.4775 35.035 77.7952 35.7617 77.3488 36.6315C76.8662 37.5822 76.6253 38.637 76.6474 39.7028C76.6253 40.7603 76.8731 41.8059 77.3676 42.7411C77.8316 43.6024 78.5224 44.3205 79.3654 44.8179C80.2534 45.3328 81.2657 45.5946 82.2923 45.5749C83.7547 45.5749 84.9642 45.2286 85.9206 44.5358C86.8734 43.8523 87.5195 42.8222 87.7196 41.6674H85.1644C85.093 41.9242 84.9713 42.1643 84.8064 42.3738C84.6415 42.5833 84.4366 42.758 84.2037 42.8879ZM80.5868 36.4501C81.0851 36.1658 81.6525 36.0253 82.226 36.0443C83.0547 36.0443 83.7139 36.2774 84.2037 36.7438C84.6934 37.2115 84.9383 37.8275 84.9383 38.5961H79.3207C79.3703 38.2787 79.4563 37.9682 79.5771 37.6706C79.7728 37.1654 80.1271 36.7372 80.5868 36.4501Z" fill="white"/>
<path d="M99.7886 28.772H99.5625V45.2815H102.455V38.5286H108.604V35.9308H102.455V31.436H109.779V28.772H102.455H99.7886Z" fill="white"/>
<path d="M119.509 34.5534C118.557 34.0635 117.501 33.8079 116.43 33.8079C115.358 33.8079 114.303 34.0635 113.35 34.5534C112.464 35.0326 111.729 35.748 111.225 36.6202C110.721 37.5617 110.458 38.613 110.458 39.6807C110.458 40.7485 110.721 41.7997 111.225 42.7413C111.729 43.6126 112.464 44.3275 113.35 44.8066C114.303 45.2965 115.358 45.5521 116.43 45.5521C117.501 45.5521 118.557 45.2965 119.509 44.8066C120.39 44.325 121.122 43.6105 121.624 42.7413C122.128 41.7997 122.391 40.7485 122.391 39.6807C122.391 38.613 122.128 37.5617 121.624 36.6202C121.122 35.7501 120.391 35.035 119.509 34.5534ZM119.221 41.4618C118.964 41.959 118.572 42.374 118.09 42.6592C117.583 42.9534 117.005 43.1028 116.418 43.091C115.835 43.1035 115.26 42.954 114.757 42.6592C114.279 42.3695 113.888 41.9557 113.627 41.4618C113.352 40.9051 113.209 40.2928 113.209 39.6721C113.209 39.0514 113.352 38.439 113.627 37.8824C113.891 37.3932 114.281 36.9837 114.757 36.6965C115.26 36.4017 115.835 36.2522 116.418 36.2647C117.005 36.2529 117.583 36.4023 118.09 36.6965C118.57 36.9792 118.962 37.3899 119.221 37.8824C119.489 38.4409 119.629 39.0525 119.629 39.6721C119.629 40.2916 119.489 40.9033 119.221 41.4618Z" fill="white"/>
<path d="M130.37 33.9432C129.48 33.9432 128.757 34.1769 128.2 34.6441C127.827 34.9536 127.533 35.3485 127.345 35.7955L127.186 34.1476H124.584V45.2816H127.342V39.8614C127.342 38.7762 127.63 37.9669 128.206 37.4334C128.782 36.8999 129.574 36.6327 130.58 36.6317H131.597V34.0785C131.389 34.0228 131.177 33.9852 130.963 33.9663C130.761 33.9519 130.566 33.9432 130.37 33.9432Z" fill="white"/>
<path d="M137.716 30.6458H134.959V34.1244H132.811V36.4272H134.959V45.2814H137.716V36.4272H139.863V34.1244H137.716V30.6458Z" fill="white"/>
<path d="M148.504 34.3158C147.689 33.9432 146.8 33.7615 145.904 33.7847C145.001 33.7673 144.105 33.9368 143.271 34.2827C142.564 34.5702 141.953 35.0517 141.508 35.6715C141.085 36.2931 140.867 37.0314 140.886 37.7829H143.237C143.225 37.5189 143.278 37.256 143.392 37.0177C143.507 36.7794 143.678 36.573 143.892 36.4171C144.33 36.0937 144.954 35.9315 145.764 35.9306C146.181 35.9219 146.596 35.9947 146.984 36.145C147.318 36.2782 147.6 36.5161 147.787 36.8229C147.994 37.199 148.093 37.6247 148.075 38.0535V38.3025L144.73 38.573C143.403 38.6795 142.382 39.0374 141.668 39.6467C140.954 40.256 140.595 41.0716 140.593 42.0934C140.593 43.1326 140.936 43.9721 141.622 44.6121C142.307 45.2521 143.238 45.5721 144.413 45.5721C145.226 45.5863 146.029 45.3999 146.753 45.0295C147.438 44.6687 147.901 44.2019 148.142 43.6291L148.347 45.2785H150.765V38.5054C150.765 37.4663 150.57 36.597 150.178 35.8975C149.798 35.2088 149.213 34.6558 148.504 34.3158ZM148.096 40.7636C148.096 41.6271 147.844 42.2988 147.339 42.7785C146.834 43.2582 146.152 43.4981 145.293 43.4981C144.691 43.4981 144.223 43.3715 143.892 43.1138C143.561 42.8562 143.395 42.482 143.395 41.9855C143.39 41.7727 143.437 41.5619 143.532 41.3712C143.626 41.1804 143.766 41.0154 143.938 40.8902C144.299 40.611 144.909 40.434 145.769 40.3591L148.096 40.1778V40.7636Z" fill="white"/>
<path d="M155.798 28.4784H153.063V45.2815H155.798V28.4784Z" fill="white"/>
<path d="M166.048 42.8881C165.558 43.176 164.937 43.3199 164.184 43.3199C163.159 43.3199 162.386 43.0109 161.867 42.393C161.453 41.9022 161.207 41.2215 161.122 40.3579L169.518 40.3378V39.503C169.518 38.3286 169.296 37.3211 168.851 36.4806C168.424 35.6553 167.769 34.9695 166.964 34.5045C166.15 34.0248 165.178 33.7849 164.049 33.7849C163.033 33.767 162.032 34.0289 161.155 34.542C160.317 35.0409 159.636 35.765 159.189 36.6317C158.706 37.5825 158.465 38.6373 158.488 39.7031C158.465 40.7605 158.713 41.8061 159.208 42.7413C159.673 43.603 160.364 44.3212 161.208 44.8181C162.096 45.333 163.109 45.5948 164.135 45.5752C165.598 45.5752 166.807 45.2288 167.764 44.5361C168.715 43.852 169.36 42.822 169.56 41.6676H167.006C166.935 41.9242 166.814 42.1642 166.649 42.3737C166.485 42.5831 166.281 42.758 166.048 42.8881ZM162.431 36.4504C162.93 36.1661 163.497 36.0255 164.07 36.0445C164.899 36.0445 165.558 36.2777 166.048 36.744C166.538 37.2118 166.783 37.8278 166.783 38.5963H161.165C161.215 38.279 161.301 37.9685 161.422 37.6709C161.617 37.1657 161.972 36.7375 162.431 36.4504Z" fill="white"/>
<path d="M171.372 36.4271H176.932L171.372 43.0231V45.2813H180.367V42.977H174.739L180.367 36.4055V34.1243H171.372V36.4271Z" fill="white"/>
<path d="M190.064 34.316C189.251 33.9442 188.364 33.7626 187.471 33.7849C186.568 33.7676 185.671 33.9372 184.836 34.2829C184.13 34.5713 183.519 35.0526 183.073 35.6718C182.651 36.2937 182.434 37.0319 182.453 37.7831H184.802C184.79 37.5191 184.843 37.2561 184.957 37.0177C185.072 36.7794 185.243 36.5731 185.457 36.4173C185.889 36.0935 186.52 35.9308 187.33 35.9308C187.747 35.9219 188.162 35.9948 188.551 36.1453C188.885 36.2788 189.166 36.5166 189.353 36.8232C189.56 37.1993 189.66 37.6249 189.642 38.0537V38.3027L186.297 38.5733C184.97 38.6798 183.949 39.0377 183.233 39.6469C182.518 40.2562 182.16 41.0718 182.16 42.0937C182.16 43.1328 182.503 43.9723 183.189 44.6123C183.874 45.2523 184.805 45.5723 185.98 45.5723C186.793 45.5864 187.596 45.4 188.319 45.0297C189.005 44.6689 189.468 44.2021 189.709 43.6293L189.912 45.2787H192.331V38.5056C192.331 37.4665 192.135 36.5972 191.743 35.8977C191.362 35.2082 190.775 34.6551 190.064 34.316ZM189.657 40.7638C189.657 41.6273 189.405 42.299 188.9 42.7787C188.395 43.2585 187.713 43.4984 186.854 43.4984C186.251 43.4984 185.784 43.3717 185.453 43.1141C185.122 42.8564 184.956 42.4822 184.956 41.9857C184.951 41.773 184.998 41.5623 185.092 41.3715C185.186 41.1808 185.325 41.0157 185.498 40.8904C185.859 40.6112 186.469 40.4342 187.328 40.3594L189.657 40.178V40.7638Z" fill="white"/>
</g>
<defs>
<clipPath id="clip0_10_2646">
<rect width="193.702" height="54.4681" fill="white" transform="translate(0 0.766235)"/>
</clipPath>
</defs>
</svg>
